<svg width="155" height="20" viewBox="0 0 155 20" fill="none" xmlns="http://www.w3.org/2000/svg">
<path d="M0 14.3603L6.3059 9.27701L0 4.65587L1.05098 3.26953H14.7138L15.7648 4.65587H17.8667L18.9177 6.04221L1.05098 15.7466L0 14.3603Z" fill="white"/>
<path d="M28.2205 1.40635H30.5662L35.8488 15.5H33.4835L32.3205 12.1096H26.4268L25.2638 15.5H22.9773L28.2205 1.40635ZM31.7094 10.2765L29.4032 3.41692H29.3638L27.0773 10.2765H31.7094ZM36.798 5.44719H38.7298V15.5H36.798V5.44719ZM36.6798 1.56405H38.8677V3.65345H36.6798V1.56405ZM42.6328 15.5H40.7011V5.44719H42.6328V7.35919H42.6722C43.2767 5.92683 44.1768 5.21065 45.3727 5.21065C45.7012 5.21065 46.01 5.23036 46.2991 5.26979V7.12266C46.0626 7.08324 45.8457 7.06352 45.6486 7.06352C44.7682 7.06352 44.0454 7.36577 43.4804 7.97025C42.9153 8.57473 42.6328 9.35005 42.6328 10.2962V15.5ZM51.3486 15.7957C50.363 15.7957 49.4957 15.5723 48.7467 15.1255C47.9977 14.6787 47.4195 14.0545 47.0121 13.2529C46.6047 12.4382 46.401 11.5117 46.401 10.4736C46.401 9.43546 46.6047 8.5156 47.0121 7.714C47.4195 6.89926 47.9911 6.2685 48.727 5.82171C49.476 5.37491 50.3433 5.15152 51.3289 5.15152C52.1699 5.15152 52.9189 5.32235 53.576 5.66402C54.233 5.99254 54.7587 6.45904 55.1529 7.06352C55.5471 7.65487 55.7837 8.33162 55.8625 9.0938H53.8717C53.806 8.46303 53.576 7.91768 53.1818 7.45775C52.7875 6.98468 52.1765 6.74814 51.3486 6.74814C50.3499 6.74814 49.6074 7.10952 49.1212 7.83227C48.6481 8.54188 48.4116 9.42232 48.4116 10.4736C48.4116 11.5249 48.6481 12.4053 49.1212 13.1149C49.6074 13.8245 50.3499 14.1793 51.3486 14.1793C52.1896 14.1793 52.8072 13.9494 53.2015 13.4894C53.5957 13.0295 53.8191 12.4579 53.8717 11.7745H55.8625C55.8231 12.5367 55.6063 13.2266 55.212 13.8442C54.8178 14.4487 54.2856 14.9284 53.6154 15.2832C52.9452 15.6248 52.1896 15.7957 51.3486 15.7957ZM59.1395 15.5H57.2078V5.44719H59.1395V7.35919H59.1789C59.7834 5.92683 60.6836 5.21065 61.8794 5.21065C62.2079 5.21065 62.5167 5.23036 62.8058 5.26979V7.12266C62.5693 7.08324 62.3525 7.06352 62.1554 7.06352C61.2749 7.06352 60.5522 7.36577 59.9871 7.97025C59.4221 8.57473 59.1395 9.35005 59.1395 10.2962V15.5ZM66.2963 15.776C65.2976 15.776 64.496 15.5131 63.8915 14.9875C63.3002 14.4619 63.0045 13.7654 63.0045 12.8981C63.0045 12.1753 63.1688 11.5971 63.4973 11.1635C63.8389 10.7167 64.3054 10.375 64.8968 10.1385C65.5013 9.88882 66.27 9.67857 67.203 9.50774C67.8469 9.38947 68.3331 9.28434 68.6617 9.19235C68.9902 9.08723 69.253 8.94925 69.4501 8.77842C69.6472 8.59444 69.7458 8.34476 69.7458 8.02938C69.7458 7.1358 69.1085 6.68901 67.8338 6.68901C66.9796 6.68901 66.3817 6.83356 66.0401 7.12266C65.6984 7.41176 65.5013 7.89797 65.4487 8.5813H63.4776C63.5301 7.54317 63.9178 6.70872 64.6405 6.07795C65.3633 5.44719 66.454 5.13181 67.9126 5.13181C69.0428 5.13181 69.9429 5.40777 70.6131 5.95969C71.2964 6.49846 71.6381 7.37891 71.6381 8.60101V13.2135C71.6381 13.5946 71.6709 13.8771 71.7366 14.0611C71.8023 14.2319 71.9272 14.3173 72.1112 14.3173L72.3477 14.2976V15.4803C72.0192 15.5591 71.6906 15.5986 71.3621 15.5986C70.8628 15.5986 70.4817 15.4869 70.2189 15.2635C69.9692 15.0269 69.8181 14.6327 69.7655 14.0808H69.7261C69.3976 14.6196 68.9442 15.0401 68.366 15.3423C67.7878 15.6314 67.0979 15.776 66.2963 15.776ZM65.0151 12.7601C65.0151 13.7325 65.5867 14.2188 66.7299 14.2188C67.6367 14.2188 68.366 13.9954 68.9179 13.5486C69.4698 13.0886 69.7458 12.4316 69.7458 11.5774V10.1385C69.6012 10.2699 69.345 10.3947 68.977 10.513C68.6222 10.6181 68.1426 10.7364 67.5381 10.8678C66.6314 11.0518 65.9809 11.2883 65.5867 11.5774C65.2056 11.8534 65.0151 12.2476 65.0151 12.7601ZM74.2894 4.22508C74.2894 3.12125 74.4997 2.3525 74.9202 1.91885C75.3538 1.4852 76.0109 1.26837 76.8913 1.26837C77.1541 1.26837 77.5615 1.3078 78.1134 1.38664V2.94384C77.7192 2.90442 77.4432 2.88471 77.2856 2.88471C76.8782 2.88471 76.6022 2.97012 76.4577 3.14096C76.3131 3.31179 76.2409 3.66002 76.2409 4.18566V5.44719H78.1134V7.04381H76.2409V15.5H74.2894V7.04381H72.9096V5.44719H74.2894V4.22508ZM82.4498 15.6183C81.5562 15.6183 80.886 15.4014 80.4392 14.9678C80.0056 14.5341 79.7887 13.7654 79.7887 12.6616V7.04381H78.3301V5.44719H79.7887V2.21452H81.7205V5.44719H83.6522V7.04381H81.7205V12.7207C81.7205 13.2332 81.7993 13.5814 81.957 13.7654C82.1278 13.9362 82.4235 14.0216 82.844 14.0216C83.0937 14.0216 83.3697 13.9954 83.6719 13.9428V15.5C83.2777 15.5788 82.8703 15.6183 82.4498 15.6183ZM89.1677 1.40635H94.2729C96.2178 1.40635 97.7224 2.03712 98.7868 3.29865C99.8644 4.54704 100.403 6.27507 100.403 8.48274C100.403 9.92825 100.16 11.1766 99.6738 12.2279C99.1876 13.2792 98.478 14.0874 97.545 14.6524C96.6252 15.2175 95.5147 15.5 94.2138 15.5H89.1677V1.40635ZM94.2138 14.2385C95.8695 14.2385 97.0654 13.7128 97.8013 12.6616C98.5372 11.5971 98.9051 10.2042 98.9051 8.48274C98.9051 6.735 98.5437 5.32892 97.821 4.26451C97.0982 3.20009 95.909 2.66788 94.2532 2.66788H90.6066V14.2385H94.2138ZM106.445 15.776C105.446 15.776 104.586 15.5526 103.863 15.1058C103.14 14.6458 102.588 14.0151 102.207 13.2135C101.839 12.4119 101.655 11.4986 101.655 10.4736C101.655 9.40918 101.852 8.48274 102.247 7.69429C102.641 6.89269 103.199 6.27507 103.922 5.84142C104.645 5.40777 105.486 5.19094 106.445 5.19094C107.391 5.19094 108.206 5.4012 108.889 5.82171C109.573 6.22908 110.092 6.80071 110.447 7.5366C110.801 8.25935 110.979 9.08723 110.979 10.0202C110.979 10.3882 110.972 10.6247 110.959 10.7298H102.996C103.009 11.4395 103.14 12.0965 103.39 12.701C103.653 13.2923 104.04 13.772 104.553 14.1399C105.079 14.4947 105.716 14.6721 106.465 14.6721C107.385 14.6721 108.094 14.4356 108.594 13.9625C109.093 13.4894 109.408 12.9769 109.54 12.425H110.841C110.578 13.4237 110.079 14.2319 109.343 14.8495C108.607 15.4671 107.641 15.776 106.445 15.776ZM109.619 9.60629C109.619 9.00181 109.487 8.44989 109.224 7.95054C108.975 7.43804 108.607 7.03724 108.121 6.74814C107.634 6.4459 107.056 6.29478 106.386 6.29478C105.427 6.29478 104.632 6.61016 104.001 7.24093C103.383 7.87169 103.048 8.66015 102.996 9.60629H109.619ZM116.283 15.7562C114.917 15.7562 113.846 15.4277 113.07 14.7707C112.295 14.1005 111.894 13.2463 111.868 12.2082H113.208C113.248 12.9441 113.524 13.5354 114.036 13.9822C114.549 14.4159 115.304 14.6327 116.303 14.6327C117.197 14.6327 117.847 14.4619 118.254 14.1202C118.662 13.7654 118.866 13.312 118.866 12.7601C118.866 12.3527 118.754 12.0308 118.53 11.7943C118.32 11.5446 118.051 11.3606 117.722 11.2423C117.394 11.1241 116.96 11.0058 116.421 10.8875C116.342 10.8744 116.191 10.8415 115.968 10.789C115.127 10.5787 114.463 10.3816 113.977 10.1976C113.491 10.0137 113.077 9.7377 112.735 9.36976C112.407 9.00181 112.242 8.5156 112.242 7.91111C112.242 7.08324 112.558 6.42619 113.189 5.93997C113.819 5.45376 114.693 5.21065 115.81 5.21065C117.045 5.21065 117.998 5.49975 118.668 6.07795C119.352 6.64301 119.739 7.37234 119.831 8.26592H118.491C118.228 6.97811 117.341 6.3342 115.83 6.3342C115.107 6.3342 114.549 6.46561 114.154 6.72843C113.773 6.99125 113.583 7.35919 113.583 7.83227C113.583 8.18707 113.688 8.4696 113.898 8.67986C114.108 8.89011 114.371 9.05437 114.687 9.17264C115.015 9.29091 115.455 9.40918 116.007 9.52745L116.461 9.64572C117.262 9.84283 117.919 10.0465 118.432 10.2568C118.944 10.4539 119.371 10.7496 119.713 11.1438C120.055 11.538 120.226 12.0636 120.226 12.7207C120.226 13.6406 119.877 14.3765 119.181 14.9284C118.484 15.4803 117.519 15.7562 116.283 15.7562ZM121.678 5.44719H122.959V15.5H121.678V5.44719ZM121.481 1.78087H123.137V3.43663H121.481V1.78087ZM129.219 19.1072C127.905 19.1072 126.873 18.8247 126.124 18.2596C125.388 17.6945 124.981 16.9521 124.902 16.0322H126.242C126.348 16.6104 126.643 17.0769 127.13 17.4317C127.616 17.7997 128.319 17.9836 129.239 17.9836C131.394 17.9836 132.471 17.0046 132.471 15.0466V13.1741H132.432C132.116 13.7391 131.67 14.1925 131.091 14.5341C130.526 14.8627 129.843 15.0269 129.042 15.0269C128.214 15.0269 127.465 14.843 126.794 14.475C126.137 14.1071 125.612 13.5551 125.217 12.8193C124.823 12.0834 124.626 11.1766 124.626 10.0991C124.626 9.03466 124.823 8.13451 125.217 7.39862C125.612 6.66273 126.137 6.11738 126.794 5.76257C127.465 5.39463 128.214 5.21065 129.042 5.21065C129.843 5.21065 130.526 5.38149 131.091 5.72315C131.67 6.05167 132.116 6.48532 132.432 7.0241H132.471V5.44719H133.753V14.8692C133.753 16.2622 133.352 17.3134 132.55 18.0231C131.749 18.7458 130.638 19.1072 129.219 19.1072ZM125.967 10.0991C125.967 11.2686 126.249 12.1951 126.814 12.8784C127.392 13.5617 128.194 13.9034 129.219 13.9034C130.191 13.9034 130.973 13.5814 131.565 12.9375C132.169 12.2936 132.471 11.3475 132.471 10.0991C132.471 8.87697 132.169 7.94397 131.565 7.30006C130.973 6.65616 130.191 6.3342 129.219 6.3342C128.194 6.3342 127.392 6.67587 126.814 7.35919C126.249 8.04252 125.967 8.95582 125.967 10.0991ZM142.675 8.71928C142.675 8.00967 142.491 7.43804 142.123 7.00439C141.755 6.5576 141.163 6.3342 140.349 6.3342C139.731 6.3342 139.179 6.46561 138.693 6.72843C138.22 6.99125 137.845 7.33948 137.569 7.77313C137.307 8.19364 137.175 8.65358 137.175 9.15293V15.5H135.894V5.44719H137.175V6.88612H137.215C137.543 6.39991 137.99 5.99911 138.555 5.68373C139.133 5.36834 139.836 5.21065 140.664 5.21065C141.623 5.21065 142.412 5.48661 143.03 6.03853C143.647 6.57731 143.956 7.37891 143.956 8.44332V15.5H142.675V8.71928ZM149.759 15.7562C148.392 15.7562 147.321 15.4277 146.546 14.7707C145.771 14.1005 145.37 13.2463 145.343 12.2082H146.684C146.723 12.9441 146.999 13.5354 147.512 13.9822C148.024 14.4159 148.78 14.6327 149.779 14.6327C150.672 14.6327 151.323 14.4619 151.73 14.1202C152.137 13.7654 152.341 13.312 152.341 12.7601C152.341 12.3527 152.229 12.0308 152.006 11.7943C151.796 11.5446 151.526 11.3606 151.198 11.2423C150.869 11.1241 150.436 11.0058 149.897 10.8875C149.818 10.8744 149.667 10.8415 149.443 10.789C148.602 10.5787 147.939 10.3816 147.453 10.1976C146.966 10.0137 146.552 9.7377 146.211 9.36976C145.882 9.00181 145.718 8.5156 145.718 7.91111C145.718 7.08324 146.033 6.42619 146.664 5.93997C147.295 5.45376 148.169 5.21065 149.286 5.21065C150.521 5.21065 151.474 5.49975 152.144 6.07795C152.827 6.64301 153.215 7.37234 153.307 8.26592H151.966C151.704 6.97811 150.817 6.3342 149.305 6.3342C148.583 6.3342 148.024 6.46561 147.63 6.72843C147.249 6.99125 147.058 7.35919 147.058 7.83227C147.058 8.18707 147.163 8.4696 147.374 8.67986C147.584 8.89011 147.847 9.05437 148.162 9.17264C148.491 9.29091 148.931 9.40918 149.483 9.52745L149.936 9.64572C150.738 9.84283 151.395 10.0465 151.907 10.2568C152.42 10.4539 152.847 10.7496 153.189 11.1438C153.53 11.538 153.701 12.0636 153.701 12.7207C153.701 13.6406 153.353 14.3765 152.656 14.9284C151.96 15.4803 150.994 15.7562 149.759 15.7562Z" fill="white"/>
</svg>
